<svg width="100%" height="100%" id="svg" viewBox="0 0 1440 690" xmlns="http://www.w3.org/2000/svg" class="transition duration-300 ease-in-out delay-150"><defs><linearGradient id="gradient" x1="100%" y1="57%" x2="0%" y2="43%"><stop offset="5%" stop-color="#ef6c00"></stop><stop offset="95%" stop-color="#00eab7"></stop></linearGradient></defs><path d="M 0,700 C 0,700 0,140 0,140 C 34.59900933839023,156.4001150214529 69.19801867678046,172.80023004290584 103,174 C 136.80198132321954,175.19976995709416 169.80693463126838,161.19919484982964 203,154 C 236.19306536873162,146.80080515017036 269.574242798146,146.4029905577757 308,135 C 346.425757201854,123.5970094422243 389.89609417614804,101.18884291906761 422,116 C 454.10390582385196,130.8111570809324 474.84138049726175,182.8416377659539 508,190 C 541.1586195027382,197.1583622340461 586.7383838348051,159.44460601711683 620,129 C 653.2616161651949,98.55539398288319 674.2050841635179,75.37993816557884 706,88 C 737.7949158364821,100.62006183442116 780.441279511124,149.03564132056783 819,152 C 857.558720488876,154.96435867943217 892.029797791986,112.47749655214986 926,98 C 959.970202208014,83.52250344785014 993.4395293209318,97.05437247083276 1027,123 C 1060.5604706790682,148.94562752916724 1094.2120849242863,187.30501356451904 1125,172 C 1155.7879150757137,156.69498643548096 1183.7121309819229,87.725573271091 1222,88 C 1260.2878690180771,88.274426728909 1308.939391148022,157.79269335111687 1347,178 C 1385.060608851978,198.20730664888313 1412.530304425989,169.10365332444155 1440,140 C 1440,140 1440,700 1440,700 Z" stroke="none" stroke-width="0" fill="url(#gradient)" fill-opacity="0.265" class="transition-all duration-300 ease-in-out delay-150 path-0" transform="rotate(-180 720 350)"></path><defs><linearGradient id="gradient" x1="100%" y1="57%" x2="0%" y2="43%"><stop offset="5%" stop-color="#ef6c00"></stop><stop offset="95%" stop-color="#00eab7"></stop></linearGradient></defs><path d="M 0,700 C 0,700 0,280 0,280 C 44.39000421195725,270.6434050846813 88.7800084239145,261.28681016936264 121,248 C 153.2199915760855,234.71318983063733 173.2699705162993,217.49616440723076 200,233 C 226.7300294837007,248.50383559276924 260.14010951088835,296.7285322017145 295,301 C 329.85989048911165,305.2714677982855 366.16959144014737,265.58970678591146 403,265 C 439.83040855985263,264.41029321408854 477.18152472852216,302.9126406546398 518,311 C 558.8184752714778,319.0873593453602 603.1043096457637,296.75973059552933 630,297 C 656.8956903542363,297.24026940447067 666.4012366884233,320.04843696324286 701,313 C 735.5987633115767,305.95156303675714 795.2907436005436,269.04652155149915 832,251 C 868.7092563994564,232.95347844850085 882.4357889094027,233.7654768307604 911,255 C 939.5642110905973,276.2345231692396 982.9661007618452,317.8915711254592 1025,327 C 1067.0338992381548,336.1084288745408 1107.699808043217,312.6682386674027 1137,292 C 1166.300191956783,271.3317613325973 1184.2346670652878,253.43547420493007 1215,256 C 1245.7653329347122,258.5645257950699 1289.3615236956323,281.5898645128771 1329,289 C 1368.6384763043677,296.4101354871229 1404.319238152184,288.2050677435615 1440,280 C 1440,280 1440,700 1440,700 Z" stroke="none" stroke-width="0" fill="url(#gradient)" fill-opacity="0.4" class="transition-all duration-300 ease-in-out delay-150 path-1" transform="rotate(-180 720 350)"></path><defs><linearGradient id="gradient" x1="100%" y1="57%" x2="0%" y2="43%"><stop offset="5%" stop-color="#ef6c00"></stop><stop offset="95%" stop-color="#00eab7"></stop></linearGradient></defs><path d="M 0,700 C 0,700 0,420 0,420 C 29.9831337070906,422.74326935091847 59.9662674141812,425.4865387018369 94,416 C 128.0337325858188,406.5134612981631 166.1180640503658,384.79711454357084 205,377 C 243.8819359496342,369.20288545642916 283.5614763843557,375.32500312387964 313,384 C 342.4385236156443,392.67499687612036 361.63603041221165,403.90287296091054 395,403 C 428.36396958778835,402.09712703908946 475.8944019667973,389.06350503247813 516,377 C 556.1055980332027,364.93649496752187 588.7863617205988,353.84310690917687 616,375 C 643.2136382794012,396.15689309082313 664.9601511508072,449.5640673308142 704,471 C 743.0398488491928,492.4359326691858 799.3730336761722,481.90062376756646 835,471 C 870.6269663238278,460.09937623243354 885.5477141445045,448.83343759892 912,436 C 938.4522858554955,423.16656240108 976.4361097458095,408.7656258367535 1014,396 C 1051.5638902541905,383.2343741632465 1088.7078468722573,372.10405905406606 1122,393 C 1155.2921531277427,413.89594094593394 1184.7325027651614,466.8181379469822 1219,461 C 1253.2674972348386,455.1818620530178 1292.3621420670968,390.6233891580051 1330,374 C 1367.6378579329032,357.3766108419949 1403.8189289664515,388.68830542099744 1440,420 C 1440,420 1440,700 1440,700 Z" stroke="none" stroke-width="0" fill="url(#gradient)" fill-opacity="0.53" class="transition-all duration-300 ease-in-out delay-150 path-2" transform="rotate(-180 720 350)"></path><defs><linearGradient id="gradient" x1="100%" y1="57%" x2="0%" y2="43%"><stop offset="5%" stop-color="#ef6c00"></stop><stop offset="95%" stop-color="#00eab7"></stop></linearGradient></defs><path d="M 0,700 C 0,700 0,560 0,560 C 38.44585911186978,540.4172783043596 76.89171822373956,520.834556608719 105,522 C 133.10828177626044,523.165443391281 150.87898621691153,545.0790518694835 188,568 C 225.12101378308847,590.9209481305165 281.59233690861424,614.8492359133468 320,605 C 358.40766309138576,595.1507640866532 378.75166614863167,551.5240044771293 406,543 C 433.24833385136833,534.4759955228707 467.40099849685873,561.0547461781359 508,561 C 548.5990015031413,560.9452538218641 595.6443398639337,534.257010810327 631,525 C 666.3556601360663,515.742989189673 690.0216420474064,523.9172105805566 717,522 C 743.9783579525936,520.0827894194434 774.2690919464408,508.07414686744704 808,510 C 841.7309080535592,511.92585313255296 878.9019901668308,527.7862019496552 918,547 C 957.0980098331692,566.2137980503448 998.1229473862359,588.7810453339322 1035,584 C 1071.8770526137641,579.2189546660678 1104.6062202882256,547.0896167146161 1133,537 C 1161.3937797117744,526.9103832853839 1185.4521714608625,538.8604878076034 1224,541 C 1262.5478285391375,543.1395121923966 1315.585093868325,535.4684320549704 1354,537 C 1392.414906131675,538.5315679450296 1416.2074530658374,549.2657839725148 1440,560 C 1440,560 1440,700 1440,700 Z" stroke="none" stroke-width="0" fill="url(#gradient)" fill-opacity="1" class="transition-all duration-300 ease-in-out delay-150 path-3" transform="rotate(-180 720 350)"></path></svg>